#!OML:ASF E:\emotionWalksFemale\Project 1\Capture day 1\Session 1\Female1.ASF
:FULLY-SPECIFIED
:DEGREES
1383
root 8.88948 15.4997 -13.6938 -0.109821 8.60766 -358.811
lowerback 8.52755 -2.6746 0.0425892
upperback -6.66763 -3.32804 2.57194
thorax -11.859 -1.4567 3.38894
lowerneck -15.7682 7.06656 4.97845
upperneck 15.3578 8.7519 -1.45496
head 7.6034 4.34153 -0.293018
rclavicle -1.74931e-014 2.22639e-014
rhumerus -59.2417 -7.50346 -61.288
rradius 28.8704
rwrist 25.7365
rhand 0.856788 -52.6659
rfingers 7.12502
rthumb 26.4108 -1160.85
lclavicle -1.74931e-014 2.22639e-014
lhumerus -44.142 -10.252 100.266
lradius 64.0157
lwrist -2.72255
lhand -14.7751 -34.2098
lfingers 7.12502
lthumb 11.3817 -4.53871
rfemur -18.1902 9.11405 23.3155
rtibia 25.6741
rfoot -9.95912 -28.4269
rtoes 6.84006
lfemur 4.37113 0.02356 -23.9537
ltibia 43.601
lfoot 6.57154 -4.15916
ltoes 2.99542
1384
root 8.87428 15.5074 -13.5399 -0.179025 8.48838 -359.467
lowerback 8.60937 -2.60625 0.639899
upperback -6.65687 -3.12814 2.77159
thorax -11.9306 -1.3984 3.24082
lowerneck -15.6294 7.23987 5.24679
upperneck 14.9038 8.95602 -1.64297
head 7.45832 4.43821 -0.38456
rclavicle 3.3197e-014 1.51076e-014
rhumerus -58.6376 -7.78811 -61.0748
rradius 28.6912
rwrist 25.9399
rhand 0.611504 -52.4238
rfingers 7.12502
rthumb 26.176 -1160.64
lclavicle 3.3197e-014 1.51076e-014
lhumerus -44.3769 -10.3842 100.233
lradius 64.0404
lwrist -2.03838
lhand -15.1266 -33.9984
lfingers 7.12502
lthumb 11.0427 -4.30891
rfemur -17.3455 8.51705 24.3759
rtibia 25.175
rfoot -9.92041 -27.7194
rtoes 6.54405
lfemur 2.87304 0.639509 -22.7439
ltibia 46.6114
lfoot 8.25862 -4.4582
ltoes 5.07549
1385
root 8.86338 15.5098 -13.3841 -0.326577 7.95732 -359.936
lowerback 8.81336 -2.38427 1.10516
upperback -6.60134 -2.74528 2.88424
thorax -12.0281 -1.24621 3.04197
lowerneck -15.4213 7.4107 5.276
upperneck 14.2936 9.15185 -1.50276
head 7.22343 4.54889 -0.341013
rclavicle -1.25234e-014 1.90833e-014
rhumerus -58.0746 -8.05435 -60.9398
rradius 28.6449
rwrist 26.335
rhand 0.443391 -52.0653
rfingers 7.12502
rthumb 26.015 -1160.3
lclavicle -1.25234e-014 1.90833e-014
lhumerus -44.6172 -10.4849 100.025
lradius 63.7774
lwrist -1.57043
lhand -15.2772 -34.1965
lfingers 7.12502
lthumb 10.8974 -4.49929
rfemur -16.4154 7.95177 25.286
rtibia 24.7326
rfoot -9.65139 -26.8723
rtoes 5.27967
lfemur 1.51305 1.49804 -21.7945
ltibia 49.5176
lfoot 9.94857 -4.65704
ltoes 5.704
1386
root 8.85171 15.514 -13.2466 -0.346605 7.75013 -360.332
lowerback 9.29177 -2.2756 1.54409
upperback -6.7336 -2.50621 2.96585
thorax -12.5015 -1.15621 2.87547
lowerneck -15.0838 7.54932 5.37581
upperneck 13.8644 9.30344 -1.36638
head 7.02908 4.64278 -0.316922
rclavicle -1.05356e-014 3.10104e-014
rhumerus -57.5546 -8.07091 -61.0478
rradius 28.7207
rwrist 26.5396
rhand -0.0453792 -52.0851
rfingers 7.12502
rthumb 25.5469 -1160.39
lclavicle -1.05356e-014 3.10104e-014
lhumerus -45.0544 -10.341 99.6792
lradius 63.1223
lwrist -1.77525
lhand -15.5303 -35.2068
lfingers 7.12502
lthumb 10.6533 -5.4969
rfemur -15.7693 7.35658 25.9863
rtibia 24.4188
rfoot -9.51649 -26.232
rtoes 3.99733
lfemur -0.124967 1.86569 -21.0806
ltibia 52.3368
lfoot 11.817 -4.77201
ltoes 7.24894
1387
root 8.84056 15.5158 -13.097 -0.401986 7.23307 -360.677
lowerback 9.49407 -2.05036 1.84399
upperback -6.72734 -2.13996 3.04235
thorax -12.6415 -1.00169 2.72933
lowerneck -14.9185 7.61977 5.57555
upperneck 13.559 9.35296 -1.34063
head 6.9121 4.68034 -0.346326
rclavicle 2.36554e-014 2.14687e-014
rhumerus -56.7769 -8.06274 -61.3539
rradius 28.6879
rwrist 26.5829
rhand -0.670175 -52.3157
rfingers 7.12502
rthumb 24.9483 -1160.71
lclavicle 2.36554e-014 2.14687e-014
lhumerus -45.4222 -10.0861 99.224
lradius 62.3779
lwrist -2.18225
lhand -15.9777 -36.1571
lfingers 7.12502
lthumb 10.2216 -6.42547
rfemur -15.1007 7.15518 26.6554
rtibia 24.2097
rfoot -9.47902 -25.6828
rtoes 2.37068
lfemur -1.56998 2.49342 -20.4174
ltibia 54.9649
lfoot 13.4503 -4.73066
ltoes 9.49916
1388
root 8.82672 15.5177 -12.9535 -0.477969 7.02103 -360.888
lowerback 9.54565 -1.90375 1.96727
upperback -6.50509 -1.91883 3.1216
thorax -12.4255 -0.905503 2.69361
lowerneck -15.1614 7.69343 5.43042
upperneck 13.1443 9.40903 -1.05112
head 6.79816 4.72127 -0.226349
rclavicle -1.66979e-014 1.74931e-014
rhumerus -55.5368 -8.27546 -61.652
rradius 28.5822
rwrist 26.7728
rhand -0.65761 -52.8775
rfingers 7.12502
rthumb 24.9603 -1161.27
lclavicle -1.66979e-014 1.74931e-014
lhumerus -45.3045 -9.89827 98.712
lradius 61.6789
lwrist -2.33224
lhand -15.9345 -36.2421
lfingers 7.12502
lthumb 10.2634 -6.51254
rfemur -14.359 6.94756 27.1555
rtibia 24.0084
rfoot -9.92398 -25.4258
rtoes 3.25659
lfemur -3.06738 2.81438 -19.9449
ltibia 57.4842
lfoot 14.5768 -4.47083
ltoes 8.80284
1389
root 8.81554 15.5195 -12.8124 -0.554436 6.82572 -361.075
lowerback 9.74143 -1.7823 2.14317
upperback -6.38343 -1.7187 3.16502
thorax -12.4165 -0.822798 2.60554
lowerneck -15.2449 7.79398 5.17678
upperneck 12.7296 9.51266 -0.604525
head 6.64527 4.79512 -0.0421368
rclavicle 5.1684e-015 2.3059e-014
rhumerus -54.4369 -8.36738 -62.0136
rradius 28.6724
rwrist 26.9637
rhand -0.625723 -53.3974
rfingers 7.12502
rthumb 24.9909 -1161.78
lclavicle 5.1684e-015 2.3059e-014
lhumerus -45.4064 -9.64882 98.1687
lradius 61.0661
lwrist -2.34315
lhand -15.4173 -35.321
lfingers 7.12502
lthumb 10.7623 -5.61674
rfemur -13.6255 6.67977 27.5999
rtibia 23.8057
rfoot -10.4858 -25.1108
rtoes 5.06408
lfemur -4.60173 3.04081 -19.6144
ltibia 59.8583
lfoot 14.9372 -4.03184
ltoes 6.52281
1390
root 8.80251 15.5153 -12.6749 -0.603301 6.46297 -361.41
lowerback 10.1265 -1.63565 2.45747
upperback -6.40811 -1.44805 3.20791
thorax -12.6982 -0.715906 2.43946
lowerneck -15.1445 7.83144 5.23116
upperneck 12.404 9.52773 -0.457399
head 6.51904 4.81706 -0.0142683
rclavicle 8.34896e-015 -3.10104e-014
rhumerus -53.5419 -8.1183 -62.6138
rradius 28.8104
rwrist 26.9526
rhand -1.59943 -52.9303
rfingers 7.12502
rthumb 24.0575 -1161.44
lclavicle 8.34896e-015 -3.10104e-014
lhumerus -45.7566 -9.29843 97.5353
lradius 60.3217
lwrist -2.39854
lhand -15.0311 -34.1098
lfingers 7.12502
lthumb 11.1348 -4.42526
rfemur -13.0176 6.51734 28.2063
rtibia 23.6307
rfoot -10.5614 -24.8245
rtoes 5.09914
lfemur -6.2491 3.42836 -19.142
ltibia 62.1431
lfoot 14.6534 -3.54997
ltoes 2.87554
1391
root 8.78643 15.51 -12.5393 -0.671815 6.19246 -361.782
lowerback 10.3858 -1.51598 2.75715
upperback -6.29225 -1.22248 3.27381
thorax -12.7361 -0.63053 2.30164
lowerneck -15.2738 7.78855 5.38195
upperneck 12.0687 9.43501 -0.54096
head 6.44164 4.76936 -0.0762809
rclavicle -1.59028e-015 3.10104e-014
rhumerus -52.3135 -8.00678 -63.2513
rradius 28.7774
rwrist 27.1108
rhand -2.55274 -52.7575
rfingers 7.12502
rthumb 23.1431 -1161.39
lclavicle -1.59028e-015 3.10104e-014
lhumerus -45.7281 -8.87777 96.7637
lradius 59.2078
lwrist -2.7427
lhand -15.1349 -34.44
lfingers 7.12502
lthumb 11.0346 -4.75006
rfemur -12.3908 6.48506 28.8541
rtibia 23.4695
rfoot -10.7146 -24.8109
rtoes 4.54653
lfemur -7.89696 3.71174 -18.6188
ltibia 64.2897
lfoot 14.0908 -3.10752
ltoes -1.81876
